<?xml version="1.0" standalone="no"?>
<svg
  width="600"
  height="600"
  viewBox="0 0 600 600"
  xmlns="http://www.w3.org/2000/svg"
>
  <g transform="translate(300,300)">
    <path d="M146.1,-210.9C175.4,-179.8,175.7,-118.5,186.1,-65.4C196.6,-12.4,217.2,32.4,211.9,75.1C206.7,117.8,175.7,158.4,136,185.4C96.4,212.3,48.2,225.7,2.4,222.3C-43.3,218.9,-86.6,198.9,-117.4,169C-148.1,139.2,-166.3,99.6,-188.7,55.4C-211.1,11.3,-237.8,-37.3,-234.2,-84.8C-230.7,-132.2,-197.1,-178.6,-153,-204.9C-108.9,-231.3,-54.5,-237.6,2,-240.3C58.4,-243,116.8,-242.1,146.1,-210.9Z" fill="#fcb900" />
  </g>
</svg>
    